<?xml version="1.0" encoding="UTF-8" standalone="no"?>
<!-- Created with Inkscape (http://www.inkscape.org/) -->

<svg
        width="512"
        height="512"
        viewBox="0 0 135.46667 135.46667"
        version="1.1"
        id="svg5"
        inkscape:version="1.1 (ce6663b3b7, 2021-05-25)"
        sodipodi:docname="icon.svg"
        xmlns:inkscape="http://www.inkscape.org/namespaces/inkscape"
        xmlns:sodipodi="http://sodipodi.sourceforge.net/DTD/sodipodi-0.dtd"
        xmlns="http://www.w3.org/2000/svg"
        xmlns:svg="http://www.w3.org/2000/svg">
    <sodipodi:namedview
            id="namedview7"
            pagecolor="#ffffff"
            bordercolor="#666666"
            borderopacity="1.0"
            inkscape:pageshadow="2"
            inkscape:pageopacity="0.0"
            inkscape:pagecheckerboard="0"
            inkscape:document-units="px"
            showgrid="false"
            inkscape:zoom="0.77096"
            inkscape:cx="29.833"
            inkscape:cy="280.82"
            inkscape:window-width="1848"
            inkscape:window-height="1009"
            inkscape:window-x="72"
            inkscape:window-y="34"
            inkscape:window-maximized="1"
            inkscape:current-layer="layer1"/>
    <defs
            id="defs2"/>
    <g
            id="layer1">
        <rect
                id="rect75796"
                width="127"
                height="127"
                x="3.8639"
                y="4.9104"
                style="fill:#d7d0c2;fill-opacity:1;stroke:none;stroke-width:0.279715"
                ry="25.263"/>
        <g
                aria-label="U  5"
                transform="scale(0.89831,1.1132)"
                id="text2145"
                style="font-weight:900;font-size:66.0553px;line-height:1.25;font-family:Roboto;-inkscape-font-specification:'Roboto Heavy';fill:#4d4d4d;stroke:#4d4d4d;stroke-width:2.64584;stroke-miterlimit:4;stroke-dasharray:none">
            <path
                    d="M 58.89,37.653 V 68.39 Q 58.89,73.616 56.665,77.454 54.439,81.26 50.279,83.259 46.118,85.259 40.441,85.259 31.862,85.259 26.927,80.808 21.992,76.357 21.896,68.616 V 37.653 H 33.281 V 68.842 Q 33.475,76.551 40.441,76.551 43.957,76.551 45.763,74.615 47.569,72.68 47.569,68.326 V 37.653 Z"
                    id="path13022"
                    style="fill:#4d4d4d;stroke:#4d4d4d;stroke-width:2.64584;stroke-miterlimit:4;stroke-dasharray:none"/>
            <path
                    d="M 98.82,61.649 101.69,37.653 H 129.14 V 46.103 H 110.53 L 109.46,55.425 Q 110.63,54.747 112.5,54.231 114.4,53.715 116.21,53.715 123.2,53.715 126.95,57.876 130.72,62.004 130.72,69.487 130.72,74.003 128.69,77.679 126.69,81.324 123.04,83.292 119.4,85.259 114.43,85.259 110.01,85.259 106.14,83.453 102.27,81.614 100.08,78.454 97.885,75.26 97.917,71.261 H 108.82 Q 108.98,73.841 110.46,75.357 111.95,76.873 114.37,76.873 119.85,76.873 119.85,68.745 119.85,61.23 113.14,61.23 109.34,61.23 107.46,63.681 Z"
                    id="path13024"
                    style="fill:#4d4d4d;stroke:#4d4d4d;stroke-width:2.64584;stroke-miterlimit:4;stroke-dasharray:none"/>
        </g>
        <g
                aria-label="b"
                transform="scale(0.96444,1.0369)"
                id="text61446"
                style="font-weight:900;font-size:49.3811px;line-height:1.25;font-family:Roboto;-inkscape-font-specification:'Roboto Heavy';fill:#4d4d4d;stroke:#4d4d4d;stroke-width:2.6458;stroke-miterlimit:4;stroke-dasharray:none">
            <path
                    d="M 85.013,77.494 Q 85.013,83.908 82.361,87.356 79.708,90.804 74.886,90.804 70.907,90.804 68.472,87.646 L 68.135,90.322 H 60.853 V 53.286 H 68.979 V 66.331 Q 71.245,63.751 74.838,63.751 79.708,63.751 82.361,67.247 85.013,70.743 85.013,77.085 Z M 76.863,76.988 Q 76.863,73.227 75.85,71.635 74.862,70.02 72.788,70.02 70.039,70.02 68.979,72.118 V 82.486 Q 70.015,84.559 72.836,84.559 75.706,84.559 76.477,81.762 76.863,80.388 76.863,76.988 Z"
                    id="path13019"
                    style="fill:#4d4d4d;stroke:#4d4d4d;stroke-width:2.6458;stroke-miterlimit:4;stroke-dasharray:none"/>
        </g>
    </g>
</svg>
